<svg width="800px" height="800px" viewBox="-2 -2 28 28" xmlns="http://www.w3.org/2000/svg">

<rect x="0" fill="none" width="100" height="100"/>

<g>

<path fill="none" stroke="black" stroke-width="3px" stroke-line-join="round" stroke-linecap="round" d="M21 12C21 16.9706 16.9706 21 12 21C7.02944 21 3 16.9706 3 12C3 7.02944 7.02944 3 12 3C16.9706 3 21 7.02944 21 12Z"/>

<path fill="#ededed" d="M21 12C21 16.9706 16.9706 21 12 21C7.02944 21 3 16.9706 3 12C3 7.02944 7.02944 3 12 3C16.9706 3 21 7.02944 21 12Z"/>

<path fill="none" stroke="black" stroke-width="3px" stroke-line-join="round" stroke-linecap="round" d="M9 12H15"/>

</g>

</svg>